<svg width="174" height="159" viewBox="0 0 174 159" fill="none" xmlns="http://www.w3.org/2000/svg">
<mask id="path-1-inside-1_53_2650" fill="white">
<path d="M0 100C0 44.7715 44.7715 0 100 0H174V139C174 150.046 165.046 159 154 159H0V100Z"/>
</mask>
<path d="M0 100C0 44.7715 44.7715 0 100 0H174V139C174 150.046 165.046 159 154 159H0V100Z" fill="#0D344E"/>
<path d="M-4 100C-4 42.5624 42.5624 -4 100 -4H174V4H100C46.9807 4 4 46.9807 4 100H-4ZM174 159H0H174ZM-4 159V100C-4 42.5624 42.5624 -4 100 -4V4C46.9807 4 4 46.9807 4 100V159H-4ZM174 0V159V0Z" fill="white" mask="url(#path-1-inside-1_53_2650)"/>
</svg>
