<svg width="188" height="58" viewBox="0 0 188 58" fill="none" xmlns="http://www.w3.org/2000/svg">
<path d="M3.09864 1.97873C2.5346 1.37197 1.58549 1.33733 0.978727 1.90136C0.371967 2.4654 0.33733 3.41451 0.901364 4.02127L3.09864 1.97873ZM187.498 3.07508C187.54 2.24769 186.902 1.54334 186.075 1.50188L172.592 0.826172C171.765 0.784708 171.06 1.42182 171.019 2.24921C170.977 3.0766 171.614 3.78095 172.442 3.82241L184.427 4.42304L183.826 16.408C183.785 17.2354 184.422 17.9397 185.249 17.9812C186.077 18.0227 186.781 17.3855 186.822 16.5582L187.498 3.07508ZM0.901364 4.02127C33.7581 39.3669 60.5994 57.4878 89.3006 57.5C117.943 57.5122 147.91 39.4769 187.006 4.11242L184.994 1.88758C145.914 37.2375 116.704 54.5117 89.3019 54.5C61.9586 54.4883 35.888 37.252 3.09864 1.97873L0.901364 4.02127Z" fill="#10E0E0"/>
</svg>
