<svg width="24" height="25" viewBox="0 0 24 25" fill="none" xmlns="http://www.w3.org/2000/svg">
<mask id="mask0_159_1435" style="mask-type:alpha" maskUnits="userSpaceOnUse" x="0" y="0" width="24" height="25">
<rect y="0.5" width="24" height="24" fill="#D9D9D9"/>
</mask>
<g mask="url(#mask0_159_1435)">
<path d="M16.15 13.5H5C4.71667 13.5 4.47917 13.4042 4.2875 13.2125C4.09583 13.0208 4 12.7833 4 12.5C4 12.2167 4.09583 11.9792 4.2875 11.7875C4.47917 11.5958 4.71667 11.5 5 11.5H16.15L13.3 8.65001C13.1 8.45001 13.0042 8.21668 13.0125 7.95001C13.0208 7.68335 13.1167 7.45001 13.3 7.25001C13.5 7.05001 13.7375 6.94585 14.0125 6.93751C14.2875 6.92918 14.525 7.02501 14.725 7.22501L19.3 11.8C19.4 11.9 19.4708 12.0083 19.5125 12.125C19.5542 12.2417 19.575 12.3667 19.575 12.5C19.575 12.6333 19.5542 12.7583 19.5125 12.875C19.4708 12.9917 19.4 13.1 19.3 13.2L14.725 17.775C14.525 17.975 14.2875 18.0708 14.0125 18.0625C13.7375 18.0542 13.5 17.95 13.3 17.75C13.1167 17.55 13.0208 17.3167 13.0125 17.05C13.0042 16.7833 13.1 16.55 13.3 16.35L16.15 13.5Z" fill="#0D344E"/>
</g>
</svg>
