<svg width="24" height="24" viewBox="0 0 24 24" fill="none" xmlns="http://www.w3.org/2000/svg">
<g id="arrow_right_alt">
<mask id="mask0_692_7952" style="mask-type:alpha" maskUnits="userSpaceOnUse" x="0" y="0" width="24" height="24">
<rect id="Bounding box" y="24" width="24" height="24" transform="rotate(-90 0 24)" fill="#D9D9D9"/>
</mask>
<g mask="url(#mask0_692_7952)">
<path id="arrow_right_alt_2" d="M13 7.85V19C13 19.2833 12.9042 19.5208 12.7125 19.7125C12.5208 19.9042 12.2833 20 12 20C11.7167 20 11.4792 19.9042 11.2875 19.7125C11.0958 19.5208 11 19.2833 11 19V7.85L8.15001 10.7C7.95001 10.9 7.71668 10.9958 7.45001 10.9875C7.18335 10.9792 6.95001 10.8833 6.75001 10.7C6.55001 10.5 6.44585 10.2625 6.43751 9.9875C6.42918 9.7125 6.52501 9.475 6.72501 9.275L11.3 4.7C11.4 4.6 11.5083 4.52917 11.625 4.4875C11.7417 4.44583 11.8667 4.425 12 4.425C12.1333 4.425 12.2583 4.44583 12.375 4.4875C12.4917 4.52917 12.6 4.6 12.7 4.7L17.275 9.275C17.475 9.475 17.5708 9.7125 17.5625 9.9875C17.5542 10.2625 17.45 10.5 17.25 10.7C17.05 10.8833 16.8167 10.9792 16.55 10.9875C16.2833 10.9958 16.05 10.9 15.85 10.7L13 7.85Z" fill="#0DCA36"/>
</g>
</g>
</svg>
