<svg width="24" height="24" viewBox="0 0 24 24" fill="none" xmlns="http://www.w3.org/2000/svg">
<g id="arrow_right_alt">
<mask id="mask0_132_4155" style="mask-type:alpha" maskUnits="userSpaceOnUse" x="0" y="0" width="24" height="24">
<rect id="Bounding box" x="24" width="24" height="24" transform="rotate(90 24 0)" fill="#D9D9D9"/>
</mask>
<g mask="url(#mask0_132_4155)">
<path id="arrow_right_alt_2" d="M11 16.15V5C11 4.71667 11.0958 4.47917 11.2875 4.2875C11.4792 4.09583 11.7167 4 12 4C12.2833 4 12.5208 4.09583 12.7125 4.2875C12.9042 4.47917 13 4.71667 13 5V16.15L15.85 13.3C16.05 13.1 16.2833 13.0042 16.55 13.0125C16.8167 13.0208 17.05 13.1167 17.25 13.3C17.45 13.5 17.5542 13.7375 17.5625 14.0125C17.5708 14.2875 17.475 14.525 17.275 14.725L12.7 19.3C12.6 19.4 12.4917 19.4708 12.375 19.5125C12.2583 19.5542 12.1333 19.575 12 19.575C11.8667 19.575 11.7417 19.5542 11.625 19.5125C11.5083 19.4708 11.4 19.4 11.3 19.3L6.72499 14.725C6.52499 14.525 6.42916 14.2875 6.43749 14.0125C6.44582 13.7375 6.54999 13.5 6.74999 13.3C6.94999 13.1167 7.18332 13.0208 7.44999 13.0125C7.71665 13.0042 7.94999 13.1 8.14999 13.3L11 16.15Z" fill="#0D344E"/>
</g>
</g>
</svg>
