<svg width="20" height="20" viewBox="0 0 20 20" fill="none" xmlns="http://www.w3.org/2000/svg">
<path d="M10 20C4.47715 20 0 15.5228 0 10C0 4.47715 4.47715 0 10 0C15.5228 0 20 4.47715 20 10C20 15.5228 15.5228 20 10 20ZM18 10C18 5.58172 14.4183 2 10 2C5.58172 2 2 5.58172 2 10C2 14.4183 5.58172 18 10 18C11.4702 18 12.8478 17.6034 14.0316 16.9114L13.0237 15.1835C12.1359 15.7026 11.1027 16 10 16C6.68629 16 4 13.3137 4 10C4 6.68629 6.68629 4 10 4C13.3137 4 16 6.68629 16 10V11C16 11.5523 15.5523 12 15 12C14.4477 12 14 11.5523 14 11V7H12.6458C11.9407 6.37764 11.0144 6 10 6C7.79086 6 6 7.79086 6 10C6 12.2091 7.79086 14 10 14C11.0465 14 11.9991 13.5982 12.7119 12.9404C13.2622 13.5886 14.0831 14 15 14C16.6569 14 18 12.6569 18 11V10ZM10 8C11.1046 8 12 8.8954 12 10C12 11.1046 11.1046 12 10 12C8.8954 12 8 11.1046 8 10C8 8.8954 8.8954 8 10 8Z" fill="white"/>
</svg>
