<svg width="174" height="157" viewBox="0 0 174 157" fill="none" xmlns="http://www.w3.org/2000/svg">
<mask id="path-1-inside-1_26_1849" fill="white">
<path d="M0 100C0 44.7715 44.7715 0 100 0H174V137C174 148.046 165.046 157 154 157H0V100Z"/>
</mask>
<path d="M0 100C0 44.7715 44.7715 0 100 0H174V137C174 148.046 165.046 157 154 157H0V100Z" fill="#0D344E"/>
<path d="M-4 100C-4 42.5624 42.5624 -4 100 -4H174V4H100C46.9807 4 4 46.9807 4 100H-4ZM174 157H0H174ZM-4 157V100C-4 42.5624 42.5624 -4 100 -4V4C46.9807 4 4 46.9807 4 100V157H-4ZM174 0V157V0Z" fill="white" mask="url(#path-1-inside-1_26_1849)"/>
</svg>
