<svg width="40" height="40" viewBox="0 0 40 40" fill="none" xmlns="http://www.w3.org/2000/svg">
<path d="M21.0281 10.001C22.1535 10.0028 22.7238 10.0088 23.2166 10.0235L23.4107 10.0298C23.6349 10.0378 23.8561 10.0478 24.1228 10.0603C25.1869 10.1094 25.9128 10.2778 26.5503 10.5253C27.2094 10.7794 27.7661 11.1228 28.3219 11.6786C28.8769 12.2344 29.2203 12.7928 29.4753 13.4503C29.7219 14.0869 29.8903 14.8136 29.9403 15.8778C29.9522 16.1444 29.9618 16.3656 29.9697 16.5899L29.976 16.784C29.9906 17.2767 29.9973 17.8471 29.9994 18.9725L30.0002 19.7182C30.0003 19.8093 30.0003 19.9033 30.0003 20.0003L30.0002 20.2824L29.9996 21.0281C29.9977 22.1535 29.9918 22.7238 29.9771 23.2166L29.9707 23.4107C29.9628 23.6349 29.9528 23.8561 29.9403 24.1228C29.8911 25.1869 29.7219 25.9128 29.4753 26.5503C29.2211 27.2094 28.8769 27.7661 28.3219 28.3219C27.7661 28.8769 27.2069 29.2203 26.5503 29.4753C25.9128 29.7219 25.1869 29.8903 24.1228 29.9403C23.8561 29.9522 23.6349 29.9618 23.4107 29.9697L23.2166 29.976C22.7238 29.9906 22.1535 29.9973 21.0281 29.9994L20.2824 30.0002C20.1913 30.0003 20.0973 30.0003 20.0003 30.0003L19.7182 30.0002L18.9725 29.9996C17.8471 29.9977 17.2767 29.9918 16.784 29.9771L16.5899 29.9707C16.3656 29.9628 16.1444 29.9528 15.8778 29.9403C14.8136 29.8911 14.0886 29.7219 13.4503 29.4753C12.7919 29.2211 12.2344 28.8769 11.6786 28.3219C11.1228 27.7661 10.7803 27.2069 10.5253 26.5503C10.2778 25.9128 10.1103 25.1869 10.0603 24.1228C10.0484 23.8561 10.0387 23.6349 10.0309 23.4107L10.0246 23.2166C10.0099 22.7238 10.0033 22.1535 10.0011 21.0281L10.001 18.9725C10.0028 17.8471 10.0088 17.2767 10.0235 16.784L10.0298 16.5899C10.0378 16.3656 10.0478 16.1444 10.0603 15.8778C10.1094 14.8128 10.2778 14.0878 10.5253 13.4503C10.7794 12.7919 11.1228 12.2344 11.6786 11.6786C12.2344 11.1228 12.7928 10.7803 13.4503 10.5253C14.0878 10.2778 14.8128 10.1103 15.8778 10.0603C16.1444 10.0484 16.3656 10.0387 16.5899 10.0309L16.784 10.0246C17.2767 10.0099 17.8471 10.0033 18.9725 10.0011L21.0281 10.001ZM20.0003 15.0003C17.2374 15.0003 15.0003 17.2398 15.0003 20.0003C15.0003 22.7632 17.2398 25.0003 20.0003 25.0003C22.7632 25.0003 25.0003 22.7607 25.0003 20.0003C25.0003 17.2374 22.7607 15.0003 20.0003 15.0003ZM20.0003 17.0003C21.6572 17.0003 23.0003 18.3429 23.0003 20.0003C23.0003 21.6572 21.6576 23.0003 20.0003 23.0003C18.3434 23.0003 17.0003 21.6576 17.0003 20.0003C17.0003 18.3434 18.3429 17.0003 20.0003 17.0003ZM25.2503 13.5003C24.561 13.5003 24.0003 14.0602 24.0003 14.7494C24.0003 15.4387 24.5602 15.9994 25.2503 15.9994C25.9395 15.9994 26.5003 15.4395 26.5003 14.7494C26.5003 14.0602 25.9386 13.4994 25.2503 13.5003Z" fill="white"/>
<path d="M1 10C1 5.02944 5.02944 1 10 1H39V30C39 34.9706 34.9706 39 30 39H10C5.02944 39 1 34.9706 1 30V10Z" stroke="white" stroke-width="2"/>
</svg>
