<svg width="40" height="40" viewBox="0 0 40 40" fill="none" xmlns="http://www.w3.org/2000/svg">
<path d="M14.9405 12.9999C14.9401 13.8142 14.4461 14.547 13.6913 14.8527C12.9366 15.1584 12.0719 14.976 11.5049 14.3915C10.9379 13.807 10.7819 12.9371 11.1105 12.1921C11.4391 11.447 12.1865 10.9755 13.0005 10.9999C14.0815 11.0324 14.941 11.9184 14.9405 12.9999ZM15.0005 16.4799H11.0005V28.9999H15.0005V16.4799ZM21.3205 16.4799H17.3405V28.9999H21.2805V22.4299C21.2805 18.7699 26.0505 18.4299 26.0505 22.4299V28.9999H30.0005V21.0699C30.0005 14.8999 22.9405 15.1299 21.2805 18.1599L21.3205 16.4799Z" fill="white"/>
<path d="M1 10C1 5.02944 5.02944 1 10 1H39V30C39 34.9706 34.9706 39 30 39H10C5.02944 39 1 34.9706 1 30V10Z" stroke="white" stroke-width="2"/>
</svg>
