<svg width="47" height="47" viewBox="0 0 47 47" fill="none" xmlns="http://www.w3.org/2000/svg">
<g clip-path="url(#clip0_88_4833)">
<rect width="47" height="47" fill="#0A293E"/>
<path d="M23.9998 11C22.2232 11.8298 19.8893 12.3333 17.3332 12.3333C15.9119 12.3333 13.9998 12.3333 10.6665 11V29.6666C13.9998 31 15.9119 31 17.3332 31C19.8893 31 22.2232 30.4965 23.9998 29.6666C25.7765 28.8368 28.1104 28.3333 30.6665 28.3333C34.6665 28.3333 37.3332 29.6666 37.3332 29.6666V11C37.3332 11 34.6665 9.66663 30.6665 9.66663C28.1104 9.66663 25.7765 10.1701 23.9998 11Z" stroke="#10E0E0" stroke-width="1.5"/>
<path d="M10.6665 33.6667C12.4432 34.4966 14.7771 35 17.3332 35C19.8893 35 22.2232 34.4966 23.9998 33.6667C25.7765 32.8368 28.1104 32.3334 30.6665 32.3334C33.2226 32.3334 35.5565 32.8368 37.3332 33.6667" stroke="#10E0E0" stroke-width="1.5" stroke-linejoin="round"/>
<path d="M27.2683 20.3333C27.2683 22.1743 25.7759 23.6667 23.9349 23.6667C22.094 23.6667 20.6016 22.1743 20.6016 20.3333C20.6016 18.4924 22.094 17 23.9349 17C25.7759 17 27.2683 18.4924 27.2683 20.3333Z" stroke="#10E0E0" stroke-width="1.5" stroke-linejoin="round"/>
<path d="M15.3335 21.6666V21.6786" stroke="#10E0E0" stroke-width="2" stroke-linecap="square" stroke-linejoin="round"/>
<path d="M32.6665 18.988V19" stroke="#10E0E0" stroke-width="2" stroke-linecap="square" stroke-linejoin="round"/>
</g>
<defs>
<clipPath id="clip0_88_4833">
<rect width="47" height="47" rx="2" fill="white"/>
</clipPath>
</defs>
</svg>
