<svg width="32" height="32" viewBox="0 0 32 32" fill="none" xmlns="http://www.w3.org/2000/svg">
<g id="Group 5473">
<rect id="Rectangle 33" width="32" height="32" rx="8" fill="#0A293E"/>
<path id="Vector" d="M16.3405 7.48934C15.1308 8.05432 13.5418 8.39715 11.8015 8.39715C10.8338 8.39715 9.53197 8.39715 7.26247 7.48934V20.1986C9.53197 21.1064 10.8338 21.1064 11.8015 21.1064C13.5418 21.1064 15.1308 20.7636 16.3405 20.1986C17.5501 19.6335 19.1391 19.2908 20.8795 19.2908C23.6029 19.2908 25.4185 20.1986 25.4185 20.1986V7.48934C25.4185 7.48934 23.6029 6.58154 20.8795 6.58154C19.1391 6.58154 17.5501 6.92437 16.3405 7.48934Z" stroke="#10E0E0" stroke-width="1.5"/>
<path id="Vector_2" d="M7.26247 22.922C8.47215 23.487 10.0612 23.8298 11.8015 23.8298C13.5418 23.8298 15.1308 23.487 16.3405 22.922C17.5501 22.357 19.1391 22.0142 20.8795 22.0142C22.6198 22.0142 24.2089 22.357 25.4185 22.922" stroke="#10E0E0" stroke-width="1.5" stroke-linejoin="round"/>
<path id="Vector_3" d="M18.5656 13.844C18.5656 15.0974 17.5495 16.1135 16.2961 16.1135C15.0427 16.1135 14.0266 15.0974 14.0266 13.844C14.0266 12.5906 15.0427 11.5745 16.2961 11.5745C17.5495 11.5745 18.5656 12.5906 18.5656 13.844Z" stroke="#10E0E0" stroke-width="1.5" stroke-linejoin="round"/>
<path id="Vector_4" d="M10.4397 14.7517V14.7599" stroke="#10E0E0" stroke-width="2" stroke-linecap="square" stroke-linejoin="round"/>
<path id="Vector_5" d="M22.2412 12.928V12.9362" stroke="#10E0E0" stroke-width="2" stroke-linecap="square" stroke-linejoin="round"/>
</g>
</svg>
