<svg width="32" height="32" viewBox="0 0 32 32" fill="none" xmlns="http://www.w3.org/2000/svg">
<g id="Group 5475">
<rect id="Rectangle 33" width="32" height="32" rx="8" fill="#F3FDFD"/>
<path id="Vector" d="M19.9716 13.844L21.9228 14.4293C23.1694 14.8033 23.7927 14.9903 24.1517 15.4727C24.5106 15.9551 24.5106 16.6059 24.5106 17.9074V24.7376" stroke="#0D344E" stroke-width="1.5" stroke-linejoin="round"/>
<path id="Vector_2" d="M12.7093 12.9362H15.4327M12.7093 16.5674H15.4327" stroke="#0D344E" stroke-width="1.5" stroke-linecap="round" stroke-linejoin="round"/>
<path id="Vector_3" d="M16.3404 24.7376V22.0142C16.3404 21.1583 16.3404 20.7304 16.0745 20.4645C15.8086 20.1986 15.3806 20.1986 14.5248 20.1986H13.617C12.7611 20.1986 12.3331 20.1986 12.0672 20.4645C11.8014 20.7304 11.8014 21.1583 11.8014 22.0142V24.7376" stroke="#0D344E" stroke-width="1.5" stroke-linejoin="round"/>
<path id="Vector_4" d="M7.26247 24.7376H25.4185" stroke="#0D344E" stroke-width="1.5" stroke-linecap="round"/>
<path id="Vector_5" d="M8.17021 24.7376V10.8639C8.17021 8.58463 8.17021 7.44499 8.88845 6.87955C9.60669 6.31411 10.6643 6.62111 12.7796 7.2351L17.3186 8.55261C18.595 8.92313 19.2333 9.10839 19.6024 9.61332C19.9716 10.1183 19.9716 10.806 19.9716 12.1814V24.7376" stroke="#0D344E" stroke-width="1.5" stroke-linecap="round" stroke-linejoin="round"/>
</g>
</svg>
