<svg width="16" height="13" viewBox="0 0 16 13" fill="none" xmlns="http://www.w3.org/2000/svg">
<path d="M12.15 7.50001H1C0.716667 7.50001 0.479167 7.40418 0.2875 7.21251C0.0958333 7.02085 0 6.78335 0 6.50001C0 6.21668 0.0958333 5.97918 0.2875 5.78751C0.479167 5.59585 0.716667 5.50001 1 5.50001H12.15L9.3 2.65001C9.1 2.45001 9.00417 2.21668 9.0125 1.95001C9.02083 1.68335 9.11667 1.45001 9.3 1.25001C9.5 1.05001 9.7375 0.945845 10.0125 0.937512C10.2875 0.929178 10.525 1.02501 10.725 1.22501L15.3 5.80001C15.4 5.90001 15.4708 6.00835 15.5125 6.12501C15.5542 6.24168 15.575 6.36668 15.575 6.50001C15.575 6.63335 15.5542 6.75835 15.5125 6.87501C15.4708 6.99168 15.4 7.10001 15.3 7.20001L10.725 11.775C10.525 11.975 10.2875 12.0708 10.0125 12.0625C9.7375 12.0542 9.5 11.95 9.3 11.75C9.11667 11.55 9.02083 11.3167 9.0125 11.05C9.00417 10.7833 9.1 10.55 9.3 10.35L12.15 7.50001Z" fill="#0D344E"/>
</svg>
