<svg width="200" height="116" viewBox="0 0 200 116" fill="none" xmlns="http://www.w3.org/2000/svg">
<path d="M194.133 15.6264C194.137 15.6754 194.149 15.6416 194.163 15.5642C194.144 15.7695 194.121 15.9744 194.102 16.1796L194.133 15.6264ZM199.986 6.22397C200.04 7.79884 199.867 9.13048 199.825 8.40572C199.98 7.27465 199.878 4.58183 199.814 3.88248C199.777 5.72059 199.765 6.35648 199.752 6.96568C199.741 7.57435 199.733 8.15635 199.607 9.87862C199.62 10.3535 199.74 10.2793 199.581 12.3462C199.606 11.0446 199.521 12.4315 199.479 12.7964C199.566 12.4025 199.41 14.2324 199.375 14.8626C199.278 15.4315 199.345 13.6157 199.14 15.7019L199.243 16.1084C199.139 16.9236 199.18 15.7522 199.033 17.4925C199.056 16.5476 198.902 17.7637 199.102 15.4094C199.01 16.108 198.939 16.7259 198.879 17.294C198.836 17.8618 198.759 18.388 198.54 18.8501C198.328 19.3103 198.003 19.7143 197.556 19.9789C197.335 20.1152 197.083 20.2049 196.818 20.2583C196.587 20.3061 196.338 20.3207 196.083 20.2909C196.143 20.296 196.188 20.2966 196.233 20.2927C196.299 20.2876 196.365 20.2924 196.479 20.2785C196.234 20.3091 195.874 20.277 195.525 20.1476C195.174 20.0228 194.835 19.8106 194.579 19.5823C194.306 19.3129 194.258 19.2004 194.283 19.2279C194.297 19.2392 194.334 19.28 194.387 19.3381C194.444 19.3915 194.516 19.4632 194.598 19.5351C194.928 19.8314 195.461 20.0513 195.294 19.9488C194.936 19.7737 194.616 19.5201 194.364 19.2091C194.113 18.9002 193.927 18.5239 193.885 18.1191C193.885 18.0698 193.886 18.0583 193.889 18.058C193.859 17.7362 193.909 17.4391 193.928 17.1907C193.952 16.9418 193.978 16.7434 194.006 16.6386C193.996 16.9075 193.992 17.1137 193.99 17.2932C193.975 17.4355 193.964 17.5778 193.948 17.72C193.804 19.0319 195.173 20.1599 196.388 20.1599C197.827 20.1599 198.683 19.0358 198.828 17.72C199.333 13.1239 199.548 8.50871 199.479 3.88737C199.479 3.83241 199.48 3.77769 199.477 3.72273C199.471 3.36497 199.467 3.00719 199.458 2.64969C199.397 0.312569 196.67 -0.287621 195.319 0.86245C192.13 0.263535 188.901 0.0696411 185.662 0.0701523C185.932 0.0478058 184.874 0.0344543 185.085 3.8147e-05C183.664 0.0123672 182.244 0.0601273 180.826 0.125359C180.422 0.122276 181.943 0.0354996 181.297 0.069397C180.493 0.064003 179.982 0.162094 179.551 0.183159C179.365 0.173401 178.571 0.214485 177.838 0.24942C177.473 0.260201 177.099 0.310043 176.852 0.400703C176.726 0.440506 176.628 0.484665 176.56 0.50444C176.496 0.532433 176.462 0.540665 176.47 0.52269C176.129 0.705292 175.901 0.9282 175.74 1.12133C175.585 1.32088 175.485 1.48938 175.424 1.63218C175.295 1.91495 175.277 2.0716 175.252 2.21516C175.237 2.36182 175.217 2.49974 175.21 2.77506C175.209 2.91246 175.206 3.08503 175.237 3.30693C175.268 3.52831 175.321 3.80387 175.47 4.12157C175.529 4.30289 175.249 3.80312 175.197 3.34982C175.163 3.12766 175.161 2.92966 175.159 2.867C175.159 2.80408 175.135 2.87444 175.141 3.1911C175.19 3.68036 175.357 4.16833 175.672 4.55999C175.825 4.75775 176.017 4.92702 176.233 5.05415C176.447 5.18564 176.684 5.2763 176.927 5.32253C176.859 5.31636 176.789 5.31172 176.705 5.29092C176.62 5.275 176.521 5.25315 176.401 5.20204C176.339 5.18073 176.274 5.15094 176.205 5.10959C176.133 5.07209 176.057 5.02586 175.98 4.9632C175.819 4.84634 175.648 4.67223 175.493 4.4285C175.766 4.8723 176.204 5.20464 176.677 5.35591C177.146 5.52696 177.654 5.48892 178.057 5.47198C178.904 5.43961 179.708 5.41319 180.482 5.39368C182.031 5.3549 183.46 5.3433 184.865 5.36565C185.568 5.37412 186.264 5.39673 186.967 5.42241C187.317 5.43884 187.67 5.45583 188.026 5.47277C188.2 5.48305 188.376 5.4933 188.552 5.50358C188.646 5.51102 188.741 5.51872 188.836 5.52643C189.02 5.54287 189.207 5.5593 189.396 5.576C189.489 5.5855 189.584 5.59499 189.679 5.60449L189.822 5.61912C189.861 5.62733 189.959 5.61555 189.873 5.66563C189.513 5.95559 189.153 6.25144 188.765 6.57761C188.264 6.8953 189.04 6.2969 189.239 6.07885C189.005 6.282 188.769 6.48106 188.543 6.66597C188.163 6.97494 187.807 7.26309 187.47 7.5361C186.721 8.1381 186.042 8.66021 185.386 9.17413C184.069 10.1976 182.82 11.1574 181.188 12.5286L181.165 12.62C176.499 16.2988 171.149 21.0478 166.093 25.4657L166.718 24.9623C166.062 25.6131 164.958 26.6173 164.154 27.3716C164.01 27.4643 164.666 26.748 163.235 28.0704C163.546 27.8133 164.172 27.2804 164.009 27.4633C161.819 29.3407 158.484 32.3394 154.861 35.712C153.958 36.558 153.034 37.4238 152.102 38.2973C151.172 39.1736 150.252 40.0755 149.326 40.9631C147.477 42.7396 145.646 44.4978 143.937 46.1397L143.665 46.4081C143.645 46.425 143.622 46.4595 143.604 46.4625L143.567 46.3832L143.355 45.9412C143.17 45.5711 142.986 45.1997 142.792 44.8317C142.018 43.3613 141.171 41.9139 140.23 40.5183C139.292 39.1216 138.28 37.7641 137.184 36.472C136.643 35.8209 136.071 35.1948 135.494 34.5735C135.464 34.5396 135.408 34.4857 135.355 34.4354L135.196 34.2859C135.078 34.1973 134.966 34.101 134.838 34.0262C134.588 33.8652 134.312 33.7489 134.03 33.6644C133.462 33.5062 132.871 33.5062 132.33 33.6348C131.788 33.7638 131.283 34.0047 130.852 34.3485L130.696 34.4741L130.579 34.5761L130.344 34.78L129.874 35.1878C129.247 35.7315 128.622 36.275 127.997 36.8169C126.753 37.9056 125.513 38.9899 124.282 40.067C121.822 42.2249 119.41 44.3689 117.07 46.4695C118.497 45.1894 117.979 45.8335 116.881 46.774C113.779 49.2332 111.805 51.3805 108.707 53.9757C103.332 58.9566 98.3874 63.2456 93.5283 68.0339L93.3873 68.076C92.624 68.7499 92.454 68.9718 91.6781 69.7077L91.6843 69.6766C90.7556 70.5326 89.7468 71.4975 88.8358 72.3699C87.9302 73.2475 87.121 74.0313 86.5857 74.5203L86.5698 74.6382C85.4878 75.6786 85.9665 75.1341 84.8827 76.2267L84.8897 76.1692L83.6404 77.4576C83.6584 77.3508 82.8908 78.0799 82.0045 78.9339C81.5619 79.3607 81.0879 79.8176 80.6708 80.2195C80.4604 80.4186 80.2645 80.6045 80.0939 80.7661L80.0397 80.8162L80.0318 80.8223L80.0166 80.8323C80.0069 80.838 79.9987 80.8421 79.9912 80.8439C79.9776 80.8596 79.9627 80.8762 79.9421 80.8999C79.9198 80.8801 79.8959 80.859 79.8705 80.8364L79.8489 80.8167L79.8433 80.8118L79.8235 80.791L79.7464 80.7083C79.6427 80.5981 79.5366 80.4848 79.4277 80.3693C78.9883 79.9119 78.5183 79.4088 78.0198 78.9015C77.0333 77.8773 75.9601 76.8102 75.0008 75.8499C74.8257 75.6349 74.0901 74.8891 73.1743 74.0123C72.2587 73.1352 71.1648 72.1254 70.306 71.3477C68.6081 69.8599 66.5109 68.0932 64.2267 66.3163C63.6578 65.8691 63.0751 65.4243 62.4877 64.9779L62.2679 64.8102C62.2411 64.7882 62.1674 64.7386 62.1112 64.7011C62.0511 64.6623 61.9931 64.6204 61.9294 64.5865C61.6764 64.4473 61.4013 64.3454 61.1239 64.2917C60.5684 64.1869 60.0319 64.2483 59.5678 64.3908C59.0976 64.5316 58.681 64.7475 58.2973 65.0182C58.2485 65.0511 58.2028 65.0889 58.1556 65.1246L58.0294 65.2237L57.8163 65.3971L57.3907 65.7423C56.8244 66.2012 56.2625 66.6566 55.709 67.105L55.8421 67.1055L54.6907 68.048C54.6958 68.0201 54.534 68.1384 54.7033 67.99C53.7489 68.6421 52.0549 70.1751 51.0859 70.8785C51.7185 70.4661 51.9041 70.2334 52.566 69.702C53.5399 68.9654 52.6854 69.7629 51.3761 70.7648L51.3897 70.7295L50.5419 71.4705C50.4035 71.4985 49.5883 72.1151 49.4455 72.1455C45.6355 75.224 43.0978 77.3901 39.1096 80.4939C39.4735 80.115 36.2639 82.7521 36.9843 82.0245C34.6251 83.9348 37.442 81.798 36.4065 82.7236C35.7372 83.2437 35.0568 83.8197 34.9074 83.8765C35.203 83.6071 34.3169 84.2394 34.8529 83.8062L33.2598 85.0612C33.1014 85.1717 33.4427 84.8843 33.6145 84.7402C30.4008 87.3347 27.775 89.1607 24.8801 91.4724C24.6895 91.6766 26.0558 90.5889 25.8691 90.789C22.9644 93.1292 23.2035 92.7262 20.4737 94.8831L21.0087 94.3969C20.1411 95.1117 19.7828 95.4522 18.2796 96.5232C17.9761 96.6572 19.4939 95.53 20.182 94.9637C19.1688 95.728 16.62 97.6763 17.4411 97.1419C16.2415 98.0765 15.7594 98.3533 15.0914 98.8302C15.0809 98.861 16.2564 98.0176 15.5655 98.5801C13.891 99.7944 11.3137 101.684 9.28069 103.186C9.28814 103.158 9.12891 103.24 9.30047 103.102C7.7251 104.389 7.79778 104.128 5.56699 105.805C4.81962 106.363 4.04478 106.942 3.24938 107.536C2.85182 107.834 2.44911 108.136 2.0423 108.44L1.73616 108.669L1.57308 108.794L1.37506 108.951C1.11901 109.173 0.883496 109.426 0.679319 109.711C0.272763 110.278 -0.00229698 111.005 1.44571e-05 111.781C0.00412368 112.167 0.0793739 112.553 0.211896 112.908C0.276873 113.088 0.359829 113.255 0.449718 113.417C0.546542 113.581 0.66134 113.753 0.786414 113.895C1.28671 114.48 1.92134 114.854 2.62761 115.056C3.32746 115.25 4.16805 115.247 4.92261 114.857C5.09519 114.766 5.31298 114.617 5.39054 114.556L5.71286 114.317L6.35647 113.839C6.78563 113.522 7.2135 113.205 7.64009 112.889C8.49147 112.257 9.33592 111.63 10.1657 111.014C11.8259 109.783 13.4284 108.596 14.9168 107.492C16.1503 106.451 18.031 105.04 19.9048 103.604L20.1835 103.558L21.7314 102.339C22.3953 101.889 20.5366 103.27 21.6983 102.457L22.2432 101.944C22.3953 101.889 26.2947 98.9134 23.7174 100.985L29.806 96.3457C31.1515 95.3202 30.5249 95.6582 32.0268 94.5428C32.3514 94.3407 31.5101 94.9735 31.66 94.9177C36.1689 91.5651 36.6422 90.7507 40.8046 87.5723L40.4651 87.8601C40.8054 87.5717 41.31 87.167 41.7305 86.8308C41.9398 86.6623 42.1286 86.5108 42.2654 86.4006C42.4021 86.2894 42.4866 86.2188 42.4879 86.2118C41.8776 86.5241 41.7931 86.8496 40.4864 87.7731C40.5278 87.599 42.0176 86.4985 41.8841 86.4951C42.8713 85.7691 43.3986 85.2734 44.2345 84.6072C45.7064 83.5339 47.7266 81.8717 48.8541 81.0833C49.5306 80.5018 50.2432 79.7955 51.7315 78.5846C52.8549 77.7897 51.5307 78.8535 53.0075 77.7037L53.2011 77.4643C54.4008 76.5089 54.2251 76.6738 54.2009 76.7326C55.4797 75.7043 55.2074 75.8065 56.8342 74.5468L55.9807 75.3162C57.1503 74.3408 57.6391 73.9604 59.2923 72.6339C59.2784 72.6925 58.6155 73.2244 58.1245 73.6068C59.0801 72.9586 59.6318 72.3373 60.1226 71.9544C59.9667 72.044 58.8161 72.9563 59.3352 72.4554C59.5874 72.2564 59.8434 72.0412 60.0951 71.8265C60.2235 71.7117 60.3507 71.5981 60.4698 71.4916C60.5407 71.5434 60.6106 71.5971 60.6725 71.6505C60.7035 71.6773 60.7326 71.7039 60.7587 71.7299C60.8106 71.7787 60.8602 71.8254 60.9072 71.8694C60.8448 71.826 60.7441 71.7528 60.7302 71.7481L60.6385 71.6937L60.4706 71.5971L60.4382 71.631C60.4534 71.6169 60.4685 71.6033 60.4706 71.6002C60.6861 71.7399 61.1489 72.0774 61.3674 72.2405C61.6291 72.4434 61.9342 72.6758 62.8675 73.4637C62.7602 73.3813 62.8008 73.4357 62.7497 73.4106C64.0253 74.3539 65.5532 75.7564 67.2744 77.3408L66.9354 77.0536C67.6445 77.677 68.0698 77.9824 68.4356 78.3376C67.485 77.3994 67.7611 77.6369 67.7162 77.508C68.9348 78.7891 69.7847 79.2485 71.7784 81.3391C71.7211 81.3298 71.1975 80.8709 70.6602 80.2853C70.2729 79.9758 70.0348 79.8235 69.7377 79.5942C69.4403 79.3646 69.0768 79.0651 68.4199 78.4837C69.1667 79.1483 70.0068 79.9491 69.968 79.9571L70.2541 80.1058C70.7234 80.5722 71.0934 80.9405 71.4476 81.2928C71.6949 81.4469 70.5739 80.2732 71.6903 81.3288C72.9282 82.539 72.2605 82.0564 72.4829 82.2169C74.161 83.9053 73.2505 82.8477 74.7935 84.5438C74.6623 84.4087 74.4253 84.1768 74.273 84.0137C75.3676 85.2298 76.9262 86.8996 77.1389 87.3373C76.9573 87.1719 76.9011 87.1608 76.4973 86.6862L76.5284 86.6929C75.8933 86.0498 76.1491 86.3267 76.5061 86.7209C76.8055 87.0571 77.1738 87.4783 77.1417 87.4921C77.181 87.5286 77.2388 87.5874 77.311 87.6644C77.387 87.7466 77.4797 87.8465 77.584 87.9593C77.7185 88.1036 77.8839 88.2498 78.0766 88.3761C78.4621 88.6309 78.9475 88.7857 79.4 88.8245C79.8538 88.8674 80.2745 88.804 80.5842 88.7167C80.4455 88.7282 80.3092 88.7359 80.1728 88.729C80.6877 88.6175 81.0352 88.4334 81.2784 88.2798C81.5224 88.126 81.6637 87.997 81.7559 87.9171C81.8535 87.8344 81.8761 87.8168 81.8981 87.8116C81.9166 87.8083 81.9172 87.827 81.9184 87.847C81.9238 87.9274 81.9423 88.0289 83.1702 86.8259C84.707 85.2752 82.5615 87.3832 83.4897 86.4163C84.5604 85.401 85.0042 85.0705 86.5395 83.5534C86.9925 83.1587 87.9089 82.3422 88.0409 82.3317C88.9647 81.4007 90.9505 79.6129 91.4354 79.0415C89.7617 80.5324 89.8747 80.6423 87.9048 82.371L88.3799 81.8047C89.6941 80.5545 91.3524 78.928 92.2806 78.0882C92.0849 78.2505 91.9891 78.3126 92.0931 78.1901C93.951 76.3934 94.4351 75.8206 96.2848 74.1191C96.5771 73.9478 95.4961 74.9453 94.7192 75.6842C95.9422 74.6189 95.9563 74.5254 97.8085 72.8242C97.9498 72.7806 96.5691 73.9789 96.4024 74.2255L98.4211 72.306C98.4157 72.3165 98.427 72.3121 98.4303 72.3157C98.6502 71.96 99.9872 70.8724 101.214 69.6892C104.17 66.945 104.525 66.419 106.109 64.8405C106.571 64.4555 106.72 64.3564 106.552 64.548C105.791 65.1832 105.946 65.092 105.711 65.3475C106.706 64.4168 107.977 63.4082 107.447 63.9558C109.021 62.4698 106.833 64.4391 107.785 63.521L109.975 61.5247C109.679 61.7196 108.901 62.4153 110.005 61.3469C110.95 60.464 111.419 60.0523 112.672 58.916C112.509 59.1012 113.123 58.6199 112.182 59.4723C112.799 58.9371 113.748 58.0837 114.076 57.7113C112.671 58.9158 116.293 55.6377 115.212 56.4993L116.619 55.2992C116.305 55.5806 116.295 55.64 115.826 56.0483C116.272 55.7602 116.933 55.0174 117.407 54.5782C117.901 54.1532 119.167 53.0309 119.292 52.9613C119.712 52.5529 120.788 51.6124 121.018 51.4675C121.656 50.8751 121.033 51.3792 121.203 51.1902L123.416 49.2281C123.566 49.1592 123.838 49.0937 123.516 49.4019C124.327 48.6284 123.724 49.0331 124.995 47.9188C124.327 48.6284 126.72 46.4933 125.736 47.5045C126.507 46.9148 128.579 45.0859 129.704 44.0622C130.364 43.3845 128.442 45.1199 128.467 44.9989C130.062 43.5758 130.875 42.7822 131.587 42.0883C131.896 41.7878 132.183 41.5091 132.515 41.1871C132.574 41.1308 132.635 41.073 132.699 41.0124C132.731 40.9857 132.765 40.9436 132.798 40.9282C132.828 40.9623 132.857 40.997 132.888 41.0327C132.949 41.1061 133.013 41.1832 133.081 41.2646C133.114 41.3062 133.148 41.3489 133.184 41.3928C133.231 41.4539 133.279 41.5168 133.329 41.5815L133.143 41.3291L132.988 41.1257C133.088 41.2382 133.174 41.334 133.251 41.4272C133.366 41.5661 133.464 41.6848 133.549 41.788C133.722 41.995 133.837 42.1466 133.941 42.2745C134.149 42.5308 134.293 42.7083 134.65 43.149C134.254 42.7709 135.794 45.0438 137.259 47.8576C137.339 47.9668 137.16 47.5599 136.983 47.1852C136.805 46.8113 136.645 46.4617 136.803 46.6711C137.149 47.2859 137.487 47.9061 137.799 48.5397C137.86 48.6802 137.744 48.4781 137.613 48.2385C138.495 49.9233 138.948 51.5007 139.233 51.9756C139.329 52.2825 139.411 52.5935 139.497 52.9027C139.535 53.0568 139.593 53.2507 139.666 53.449L139.615 53.2954L139.579 53.187L139.554 53.0951C139.583 53.1403 139.665 53.3529 139.799 53.6051C139.937 53.8584 140.149 54.1524 140.415 54.4039C140.685 54.6491 140.998 54.8551 141.287 54.9763C141.429 55.0403 141.567 55.0773 141.679 55.1166C141.796 55.1402 141.89 55.1592 141.954 55.1721C142.589 55.2809 143.145 55.1497 143.568 54.9563C143.785 54.8633 143.962 54.7362 144.126 54.6196C144.279 54.4894 144.427 54.3618 144.529 54.258C144.979 53.8265 145.35 53.4921 145.796 53.09C145.499 53.3314 144.765 53.9403 145.976 52.7145C146.064 52.83 148.586 50.2112 148.606 50.3042C149.1 49.8126 150.016 48.9823 150.032 48.8826L150.013 49.0308C150.041 48.8264 151.858 47.0535 153.246 45.6936C153.052 46.1266 154.774 44.2012 155.512 43.7268C155.693 43.3865 157.981 41.3149 158.164 41.0093C159.252 39.9789 159.218 40.1631 159.521 39.9304L160 39.4214C160.591 38.9491 162.651 37.0383 163.91 35.9406L164.983 34.8106L165.442 34.4585C165.608 34.2715 166.553 33.3908 165.934 33.9001L166.559 33.3405C166.534 33.2093 167.407 32.5204 168.631 31.3588C168.932 31.1128 168.874 31.2022 168.612 31.4582C169.21 30.9222 169.028 31.1588 169.333 30.9366C169.136 31.0578 171.41 28.799 169.767 30.2049C169.619 30.2727 170.581 29.3666 171.212 28.836L171.656 28.58L172.323 27.841C173.28 26.9714 173.741 26.661 174.533 25.9791C173.735 26.6887 172.877 27.6991 174.952 25.8733C173.87 26.842 173.37 27.3551 172.822 27.8698C173.253 27.4938 173.474 27.3128 172.836 27.9351C174.434 26.484 173.335 27.4104 174.93 25.9912C174.904 26.1399 175.368 25.7623 176.799 24.5652L175.701 25.429C175.742 25.3773 175.809 25.309 175.886 25.2348C175.48 25.5743 175.359 25.6637 175.25 25.7109C175.535 25.4577 176.768 24.2668 177.228 23.8972C176.566 24.387 177.221 23.7837 177.948 23.126C178.717 22.4328 179.569 21.6878 179.019 22.1012C179.187 21.9217 180.317 20.9442 180.464 20.8793C179.153 22.0971 181.554 20.0831 181.377 20.324C181.865 19.8723 180.263 21.1826 180.924 20.5721C181.732 19.8784 182.364 19.4171 182.836 19.055L182.508 19.3558L183.79 18.3236C183.965 18.1127 182.524 19.2942 183.664 18.2948C183.982 18.0534 185.13 17.0598 185.118 17.118C184.605 17.6307 185.062 17.3584 184.082 18.2008C184.897 17.5051 187.507 15.3115 186.393 16.1264L187.384 15.3182C186.735 15.7936 184.964 17.1751 186.932 15.5298L186.926 15.5588L188.262 14.3746L188.894 13.9193C188.861 13.9154 189.065 13.7205 189.577 13.3031C189.729 13.2156 190.218 12.8291 190.203 12.8897C191.684 11.671 191.534 11.7332 191.71 11.5539C192.535 10.8697 192.86 10.6295 192.506 10.9896C192.91 10.6622 193.466 10.2133 193.989 9.79026L194.074 9.72193L194.115 9.68803C194.118 9.68597 194.123 9.68109 194.125 9.68135L194.125 9.69522L194.123 9.72297C194.12 9.79719 194.117 9.87015 194.114 9.94154C194.106 10.0846 194.099 10.2217 194.092 10.3499C194.076 10.6054 194.058 10.8222 194.038 10.973C194.031 11.3752 194.028 11.556 194.027 11.615C194.028 11.6872 194.036 11.6117 194.045 11.5108C194.062 11.3089 194.088 11.0048 194.09 11.5788C193.963 12.4207 193.849 14.0343 193.688 15.8334C193.646 16.2831 193.604 16.7444 193.561 17.2082C193.54 17.4468 193.507 17.6461 193.505 17.9648C193.521 18.2563 193.585 18.5419 193.697 18.7998C193.927 19.3126 194.296 19.7172 194.712 20.0033C195.125 20.2958 195.593 20.474 196.062 20.5377C195.813 20.4652 195.764 20.4229 195.82 20.429C195.85 20.4329 195.908 20.4403 195.988 20.4506C196.067 20.4647 196.168 20.4766 196.285 20.4791C196.516 20.4902 196.79 20.466 197.047 20.3949C197.261 20.3425 197.447 20.2454 197.579 20.1545C197.595 20.156 197.685 20.1191 197.81 20.0485C198.019 19.936 198.302 19.7087 198.481 19.4901C198.664 19.2759 198.77 19.0982 198.75 19.1596C198.74 19.1899 198.698 19.2805 198.589 19.4405C198.522 19.5338 198.432 19.6578 198.298 19.7952C198.667 19.4244 198.922 18.9603 199.066 18.4831C199.124 18.3292 199.148 18.2594 199.156 18.2545C199.164 18.2494 199.159 18.3097 199.133 18.4107C199.092 18.6136 198.965 18.9798 198.774 19.2995C198.59 19.6239 198.331 19.8805 198.243 19.9786C198.143 20.0661 198.262 20.0484 198.636 19.6527C199.001 19.1907 199.191 18.6908 199.282 18.2116C199.307 18.0917 199.321 17.9717 199.333 17.8526C199.348 17.7298 199.35 17.6384 199.358 17.5302C199.372 17.3222 199.385 17.1147 199.399 16.9046C199.45 16.0632 199.507 15.181 199.619 14.0502C199.666 14.8181 199.712 12.3018 199.78 12.8745C199.786 13.3486 199.73 13.9776 199.685 14.6212L199.737 14.2241C199.907 12.1135 199.878 11.8048 199.844 11.7488C199.805 11.6926 199.742 11.8865 199.763 10.7783C199.855 8.20437 199.912 8.75086 199.969 8.60191C200.003 8.20177 200.01 6.90225 199.986 6.22397Z" fill="#0A293E"/>
</svg>
