<svg width="200" height="116" viewBox="0 0 200 116" fill="none" xmlns="http://www.w3.org/2000/svg">
<path opacity="0.2" d="M194.133 15.6263C194.137 15.6754 194.149 15.6415 194.163 15.5642C194.144 15.7694 194.121 15.9743 194.102 16.1796L194.133 15.6263ZM199.986 6.22394C200.04 7.7988 199.867 9.13045 199.825 8.40569C199.98 7.27462 199.878 4.58179 199.814 3.88245C199.777 5.72056 199.765 6.35645 199.752 6.96564C199.741 7.57433 199.733 8.15631 199.607 9.87859C199.62 10.3535 199.74 10.2792 199.581 12.3462C199.606 11.0446 199.521 12.4314 199.479 12.7964C199.566 12.4024 199.41 14.2323 199.375 14.8626C199.278 15.4315 199.345 13.6157 199.14 15.7019L199.243 16.1084C199.139 16.9236 199.18 15.7522 199.033 17.4924C199.056 16.5476 198.902 17.7637 199.102 15.4094C199.01 16.1079 198.939 16.7258 198.879 17.2939C198.836 17.8618 198.759 18.388 198.539 18.8501C198.328 19.3103 198.003 19.7143 197.556 19.9788C197.335 20.1152 197.083 20.2048 196.818 20.2583C196.587 20.306 196.338 20.3206 196.083 20.2908C196.143 20.296 196.188 20.2965 196.233 20.2927C196.299 20.2875 196.365 20.2924 196.479 20.2785C196.234 20.3091 195.874 20.277 195.525 20.1476C195.174 20.0227 194.835 19.8106 194.579 19.5823C194.306 19.3128 194.258 19.2004 194.283 19.2279C194.297 19.2392 194.334 19.28 194.387 19.338C194.444 19.3915 194.516 19.4631 194.598 19.535C194.928 19.8314 195.461 20.0512 195.294 19.9488C194.936 19.7736 194.616 19.5201 194.364 19.2091C194.113 18.9001 193.927 18.5239 193.885 18.1191C193.885 18.0698 193.886 18.0582 193.889 18.058C193.859 17.7362 193.909 17.439 193.928 17.1907C193.952 16.9418 193.978 16.7433 194.006 16.6385C193.996 16.9074 193.992 17.1137 193.99 17.2932C193.975 17.4355 193.964 17.5777 193.948 17.72C193.804 19.0319 195.173 20.1599 196.388 20.1599C197.827 20.1599 198.683 19.0357 198.828 17.72C199.333 13.1238 199.548 8.50868 199.479 3.88734C199.479 3.83238 199.48 3.77766 199.477 3.7227C199.471 3.36494 199.467 3.00716 199.458 2.64966C199.397 0.312538 196.67 -0.287651 195.319 0.862419C192.13 0.263496 188.901 0.0696106 185.662 0.0701218C185.932 0.0477753 184.874 0.0344238 185.085 7.62939e-06C183.664 0.0123367 182.244 0.0600967 180.826 0.125328C180.422 0.122246 181.943 0.0354691 181.297 0.0693665C180.493 0.0639725 179.982 0.162071 179.551 0.183128C179.365 0.17337 178.571 0.214462 177.838 0.24939C177.473 0.260178 177.099 0.310013 176.852 0.400673C176.726 0.440483 176.628 0.484634 176.56 0.50441C176.496 0.532402 176.462 0.540634 176.47 0.522659C176.129 0.705261 175.901 0.928169 175.74 1.1213C175.585 1.32085 175.485 1.48936 175.424 1.63215C175.295 1.91492 175.277 2.07157 175.252 2.21513C175.237 2.36178 175.217 2.49972 175.21 2.77503C175.209 2.91244 175.206 3.085 175.237 3.3069C175.268 3.52828 175.321 3.80384 175.47 4.12154C175.529 4.30286 175.249 3.80309 175.197 3.34978C175.163 3.12763 175.161 2.92963 175.159 2.86697C175.159 2.80405 175.135 2.8744 175.141 3.19107C175.19 3.68033 175.357 4.1683 175.672 4.55996C175.825 4.75771 176.017 4.92699 176.233 5.05412C176.447 5.18561 176.684 5.27627 176.927 5.32249C176.859 5.31633 176.789 5.3117 176.705 5.29089C176.62 5.27497 176.521 5.25312 176.401 5.20201C176.339 5.18069 176.274 5.15091 176.205 5.10956C176.133 5.07206 176.057 5.02583 175.98 4.96317C175.819 4.84631 175.648 4.6722 175.493 4.42847C175.766 4.87227 176.204 5.20461 176.677 5.35588C177.146 5.52692 177.654 5.4889 178.057 5.47195C178.904 5.43958 179.708 5.41316 180.482 5.39365C182.031 5.35487 183.46 5.34327 184.865 5.36562C185.568 5.37409 186.264 5.3967 186.967 5.42238C187.317 5.43881 187.67 5.45579 188.026 5.47274C188.2 5.48302 188.376 5.49327 188.552 5.50355C188.646 5.51099 188.741 5.51869 188.836 5.5264C189.02 5.54283 189.207 5.55927 189.396 5.57597C189.489 5.58547 189.584 5.59496 189.679 5.60446L189.822 5.61909C189.861 5.6273 189.959 5.61552 189.873 5.6656C189.513 5.95555 189.153 6.25141 188.765 6.57758C188.264 6.89528 189.04 6.29687 189.239 6.07882C189.005 6.28197 188.769 6.48103 188.543 6.66594C188.163 6.9749 187.807 7.26306 187.47 7.53607C186.721 8.13808 186.042 8.66019 185.386 9.1741C184.069 10.1975 182.82 11.1573 181.188 12.5285L181.165 12.6199C176.499 16.2987 171.149 21.0477 166.093 25.4657L166.718 24.9622C166.062 25.613 164.958 26.6172 164.154 27.3716C164.01 27.4643 164.666 26.748 163.235 28.0704C163.546 27.8133 164.172 27.2804 164.009 27.4633C161.819 29.3407 158.484 32.3394 154.861 35.712C153.958 36.558 153.034 37.4238 152.102 38.2972C151.172 39.1735 150.252 40.0755 149.326 40.9631C147.477 42.7395 145.646 44.4978 143.937 46.1397L143.665 46.4081C143.645 46.425 143.622 46.4594 143.604 46.4625L143.567 46.3831L143.355 45.9411C143.17 45.571 142.986 45.1997 142.792 44.8316C142.018 43.3613 141.171 41.9138 140.23 40.5182C139.292 39.1216 138.28 37.764 137.184 36.4719C136.643 35.8209 136.071 35.1948 135.494 34.5735C135.464 34.5396 135.408 34.4857 135.355 34.4353L135.196 34.2858C135.078 34.1972 134.966 34.1009 134.838 34.0262C134.588 33.8652 134.312 33.7488 134.03 33.6643C133.462 33.5061 132.871 33.5061 132.33 33.6348C131.788 33.7637 131.283 34.0046 130.852 34.3485L130.696 34.4741L130.579 34.5761L130.344 34.78L129.874 35.1878C129.247 35.7315 128.622 36.275 127.997 36.8169C126.753 37.9056 125.513 38.9899 124.282 40.067C121.822 42.2249 119.41 44.3688 117.07 46.4694C118.497 45.1894 117.979 45.8335 116.881 46.774C113.779 49.2331 111.805 51.3805 108.707 53.9757C103.332 58.9566 98.3874 63.2456 93.5283 68.0339L93.3873 68.076C92.624 68.7499 92.454 68.9718 91.6781 69.7076L91.6842 69.6765C90.7556 70.5325 89.7467 71.4974 88.8358 72.3699C87.9302 73.2475 87.121 74.0313 86.5857 74.5203L86.5698 74.6381C85.4878 75.6786 85.9665 75.1341 84.8827 76.2267L84.8896 76.1691L83.6404 77.4576C83.6584 77.3508 82.8908 78.0799 82.0044 78.9339C81.5619 79.3607 81.0879 79.8176 80.6708 80.2195C80.4604 80.4186 80.2645 80.6045 80.0939 80.7661L80.0397 80.8161L80.0318 80.8223L80.0166 80.8323C80.0069 80.838 79.9986 80.8421 79.9912 80.8439C79.9776 80.8596 79.9627 80.8762 79.9421 80.8998C79.9198 80.8801 79.8959 80.859 79.8705 80.8364L79.8489 80.8167L79.8433 80.8118L79.8235 80.791L79.7464 80.7083C79.6427 80.5981 79.5366 80.4848 79.4277 80.3692C78.9883 79.9118 78.5183 79.4087 78.0198 78.9015C77.0333 77.8773 75.9601 76.8101 75.0008 75.8499C74.8256 75.6349 74.0901 74.8891 73.1742 74.0123C72.2587 73.1352 71.1648 72.1254 70.306 71.3477C68.6081 69.8599 66.5109 68.0932 64.2267 66.3162C63.6578 65.8691 63.0751 65.4243 62.4877 64.9779L62.2678 64.8102C62.2411 64.7881 62.1674 64.7386 62.1112 64.7011C62.0511 64.6623 61.9931 64.6204 61.9294 64.5865C61.6764 64.4473 61.4013 64.3453 61.1239 64.2916C60.5684 64.1869 60.0319 64.2482 59.5678 64.3908C59.0976 64.5315 58.681 64.7475 58.2973 65.0182C58.2485 65.0511 58.2028 65.0888 58.1556 65.1245L58.0294 65.2237L57.8163 65.397L57.3907 65.7422C56.8244 66.2012 56.2625 66.6565 55.709 67.1049L55.8421 67.1055L54.6907 68.048C54.6958 68.02 54.534 68.1384 54.7033 67.9899C53.7489 68.642 52.0549 70.175 51.0859 70.8785C51.7185 70.466 51.9041 70.2334 52.566 69.702C53.5399 68.9654 52.6854 69.7628 51.3761 70.7647L51.3897 70.7295L50.5419 71.4705C50.4035 71.4984 49.5883 72.1151 49.4455 72.1454C45.6355 75.224 43.0978 77.3901 39.1096 80.4938C39.4735 80.115 36.2639 82.7521 36.9843 82.0245C34.6251 83.9348 37.442 81.798 36.4065 82.7236C35.7372 83.2436 35.0568 83.8197 34.9074 83.8765C35.203 83.6071 34.3169 84.2394 34.8529 83.8061L33.2598 85.0612C33.1014 85.1716 33.4427 84.8843 33.6145 84.7402C30.4008 87.3347 27.775 89.1607 24.8801 91.4724C24.6895 91.6766 26.0558 90.5889 25.8691 90.789C22.9644 93.1292 23.2035 92.7262 20.4737 94.883L21.0087 94.3969C20.1411 95.1116 19.7828 95.4522 18.2796 96.5231C17.9761 96.6572 19.4939 95.53 20.182 94.9637C19.1688 95.728 16.62 97.6763 17.4411 97.1419C16.2415 98.0764 15.7594 98.3533 15.0914 98.8302C15.0809 98.861 16.2564 98.0176 15.5655 98.5801C13.891 99.7943 11.3137 101.684 9.28069 103.186C9.28814 103.158 9.12891 103.24 9.30047 103.102C7.7251 104.389 7.79778 104.127 5.56699 105.805C4.81962 106.363 4.04478 106.942 3.24938 107.536C2.85182 107.834 2.44911 108.136 2.0423 108.44L1.73616 108.669L1.57308 108.794L1.37506 108.951C1.11901 109.173 0.883496 109.426 0.679319 109.711C0.272763 110.278 -0.00229698 111.005 1.44571e-05 111.781C0.00412368 112.167 0.0793738 112.553 0.211896 112.908C0.276873 113.088 0.359829 113.255 0.449718 113.417C0.546542 113.581 0.661339 113.753 0.786414 113.895C1.28671 114.48 1.92133 114.854 2.62761 115.056C3.32746 115.25 4.16805 115.247 4.92261 114.857C5.09519 114.765 5.31298 114.617 5.39054 114.556L5.71286 114.317L6.35647 113.839C6.78563 113.522 7.2135 113.205 7.64009 112.889C8.49147 112.257 9.33592 111.63 10.1657 111.014C11.8258 109.783 13.4284 108.596 14.9168 107.492C16.1503 106.451 18.031 105.04 19.9048 103.604L20.1835 103.558L21.7314 102.339C22.3953 101.888 20.5366 103.27 21.6983 102.457L22.2432 101.944C22.3953 101.888 26.2947 98.9134 23.7174 100.985L29.806 96.3456C31.1515 95.3201 30.5249 95.6581 32.0268 94.5428C32.3514 94.3406 31.5101 94.9734 31.66 94.9177C36.1689 91.5651 36.6422 90.7507 40.8046 87.5722L40.4651 87.8601C40.8054 87.5717 41.31 87.1669 41.7305 86.8308C41.9398 86.6623 42.1286 86.5107 42.2654 86.4006C42.4021 86.2894 42.4866 86.2187 42.4878 86.2118C41.8776 86.5241 41.7931 86.8495 40.4864 87.7731C40.5278 87.5989 42.0176 86.4984 41.8841 86.4951C42.8713 85.769 43.3986 85.2734 44.2345 84.6072C45.7064 83.5339 47.7266 81.8717 48.8541 81.0832C49.5305 80.5018 50.2432 79.7955 51.7315 78.5845C52.8549 77.7897 51.5307 78.8535 53.0075 77.7037L53.2011 77.4643C54.4007 76.5089 54.2251 76.6738 54.2009 76.7326C55.4797 75.7043 55.2074 75.8065 56.8342 74.5467L55.9807 75.3162C57.1503 74.3408 57.6391 73.9604 59.2923 72.6339C59.2784 72.6924 58.6155 73.2243 58.1245 73.6068C59.0801 72.9585 59.6318 72.3373 60.1226 71.9544C59.9667 72.044 58.8161 72.9562 59.3352 72.4554C59.5874 72.2564 59.8434 72.0411 60.0951 71.8264C60.2235 71.7116 60.3506 71.5981 60.4698 71.4915C60.5407 71.5434 60.6106 71.5971 60.6725 71.6505C60.7035 71.6772 60.7325 71.7039 60.7587 71.7299C60.8106 71.7786 60.8602 71.8254 60.9072 71.8693C60.8448 71.8259 60.7441 71.7527 60.7302 71.7481L60.6385 71.6936L60.4706 71.5971L60.4382 71.631C60.4534 71.6169 60.4685 71.6033 60.4706 71.6002C60.6861 71.7399 61.1489 72.0774 61.3674 72.2405C61.6291 72.4434 61.9342 72.6758 62.8675 73.4637C62.7602 73.3813 62.8008 73.4357 62.7497 73.4105C64.0253 74.3538 65.5532 75.7564 67.2744 77.3408L66.9354 77.0536C67.6445 77.6769 68.0698 77.9823 68.4355 78.3375C67.485 77.3993 67.7611 77.6369 67.7162 77.508C68.9348 78.789 69.7847 79.2485 71.7784 81.339C71.7211 81.3298 71.1974 80.8708 70.6602 80.2853C70.2729 79.9758 70.0348 79.8235 69.7376 79.5942C69.4402 79.3646 69.0768 79.0651 68.4199 78.4836C69.1667 79.1483 70.0068 79.9491 69.968 79.9571L70.2541 80.1058C70.7233 80.5722 71.0934 80.9404 71.4476 81.2928C71.6949 81.4469 70.5739 80.2732 71.6903 81.3288C72.9282 82.5389 72.2605 82.0564 72.4829 82.2169C74.161 83.9052 73.2505 82.8476 74.7935 84.5437C74.6623 84.4086 74.4253 84.1767 74.273 84.0136C75.3676 85.2297 76.9262 86.8996 77.1389 87.3372C76.9573 87.1718 76.9011 87.1608 76.4973 86.6862L76.5284 86.6928C75.8933 86.0497 76.1491 86.3266 76.5061 86.7209C76.8055 87.057 77.1738 87.4782 77.1417 87.4921C77.181 87.5286 77.2388 87.5873 77.3109 87.6644C77.387 87.7466 77.4797 87.8465 77.584 87.9593C77.7185 88.1036 77.8839 88.2497 78.0766 88.3761C78.4621 88.6309 78.9475 88.7857 79.4 88.8245C79.8538 88.8674 80.2745 88.804 80.5842 88.7167C80.4455 88.7282 80.3091 88.7359 80.1728 88.729C80.6877 88.6175 81.0352 88.4334 81.2784 88.2798C81.5224 88.1259 81.6637 87.997 81.7559 87.9171C81.8534 87.8344 81.876 87.8167 81.8981 87.8116C81.9166 87.8083 81.9171 87.827 81.9184 87.847C81.9238 87.9274 81.9423 88.0288 83.1702 86.8259C84.707 85.2752 82.5615 87.3832 83.4897 86.4162C84.5604 85.401 85.0042 85.0705 86.5395 83.5534C86.9925 83.1587 87.9089 82.3422 88.0409 82.3317C88.9647 81.4007 90.9505 79.6129 91.4354 79.0415C89.7617 80.5323 89.8747 80.6423 87.9048 82.371L88.3799 81.8047C89.6941 80.5544 91.3524 78.928 92.2806 78.0881C92.0849 78.2505 91.9891 78.3126 92.0931 78.1901C93.951 76.3933 94.4351 75.8206 96.2848 74.1191C96.577 73.9478 95.4961 74.9453 94.7192 75.6842C95.9422 74.6189 95.9563 74.5254 97.8085 72.8242C97.9498 72.7805 96.5691 73.9789 96.4024 74.2254L98.4211 72.3059C98.4157 72.3165 98.427 72.3121 98.4303 72.3157C98.6502 71.96 99.9872 70.8723 101.214 69.6891C104.17 66.945 104.525 66.4189 106.109 64.8405C106.571 64.4555 106.72 64.3564 106.552 64.548C105.791 65.1831 105.946 65.0919 105.711 65.3475C106.706 64.4167 107.977 63.4082 107.447 63.9557C109.021 62.4697 106.833 64.4391 107.785 63.5209L109.975 61.5246C109.679 61.7196 108.901 62.4153 110.005 61.3469C110.95 60.4639 111.419 60.0522 112.672 58.916C112.509 59.1012 113.123 58.6199 112.182 59.4723C112.799 58.9371 113.748 58.0837 114.076 57.7113C112.671 58.9158 116.293 55.6376 115.212 56.4993L116.619 55.2991C116.305 55.5806 116.295 55.64 115.826 56.0483C116.272 55.7602 116.933 55.0174 117.407 54.5782C117.901 54.1532 119.167 53.0309 119.292 52.9613C119.712 52.5529 120.788 51.6124 121.018 51.4675C121.656 50.875 121.033 51.3792 121.203 51.1902L123.416 49.228C123.566 49.1592 123.838 49.0937 123.516 49.4019C124.327 48.6283 123.724 49.0331 124.995 47.9187C124.327 48.6283 126.719 46.4933 125.736 47.5044C126.507 46.9147 128.579 45.0859 129.704 44.0622C130.364 43.3844 128.442 45.1198 128.467 44.9989C130.062 43.5758 130.875 42.7822 131.587 42.0883C131.896 41.7878 132.183 41.5091 132.515 41.187C132.574 41.1308 132.635 41.073 132.699 41.0124C132.731 40.9857 132.765 40.9436 132.798 40.9282C132.828 40.9623 132.857 40.997 132.888 41.0327C132.949 41.1061 133.013 41.1832 133.081 41.2646C133.114 41.3062 133.148 41.3488 133.184 41.3927C133.231 41.4539 133.279 41.5168 133.329 41.5815L133.143 41.3291L132.988 41.1256C133.088 41.2381 133.174 41.3339 133.251 41.4272C133.366 41.5661 133.464 41.6848 133.549 41.788C133.722 41.995 133.837 42.1465 133.941 42.2744C134.149 42.5307 134.293 42.7082 134.65 43.1489C134.254 42.7709 135.794 45.0438 137.259 47.8576C137.339 47.9667 137.159 47.5599 136.983 47.1852C136.805 46.8113 136.645 46.4617 136.803 46.671C137.149 47.2859 137.487 47.9061 137.799 48.5397C137.86 48.6802 137.744 48.4781 137.613 48.2385C138.495 49.9232 138.948 51.5007 139.233 51.9755C139.329 52.2825 139.411 52.5935 139.497 52.9027C139.535 53.0568 139.593 53.2507 139.666 53.449L139.615 53.2954L139.579 53.187L139.554 53.0951C139.583 53.1403 139.665 53.3529 139.799 53.6051C139.937 53.8583 140.149 54.1524 140.415 54.4038C140.685 54.6491 140.997 54.8551 141.287 54.9763C141.429 55.0402 141.567 55.0772 141.679 55.1165C141.796 55.1402 141.89 55.1592 141.954 55.172C142.589 55.2809 143.145 55.1497 143.568 54.9563C143.785 54.8633 143.962 54.7362 144.126 54.6196C144.279 54.4893 144.427 54.3617 144.529 54.258C144.979 53.8265 145.35 53.4921 145.796 53.0899C145.499 53.3313 144.765 53.9403 145.976 52.7144C146.064 52.83 148.586 50.2112 148.606 50.3041C149.1 49.8126 150.016 48.9822 150.032 48.8826L150.013 49.0308C150.041 48.8263 151.858 47.0535 153.246 45.6936C153.052 46.1266 154.774 44.2012 155.512 43.7268C155.693 43.3865 157.981 41.3149 158.164 41.0093C159.252 39.9789 159.218 40.163 159.521 39.9304L160 39.4213C160.591 38.949 162.651 37.0383 163.91 35.9406L164.983 34.8106L165.442 34.4584C165.608 34.2715 166.553 33.3908 165.934 33.9001L166.559 33.3405C166.534 33.2092 167.407 32.5204 168.631 31.3588C168.932 31.1127 168.874 31.2021 168.612 31.4582C169.21 30.9222 169.028 31.1587 169.333 30.9366C169.136 31.0578 171.41 28.799 169.767 30.2049C169.619 30.2727 170.581 29.3666 171.212 28.836L171.656 28.5799L172.323 27.841C173.28 26.9714 173.741 26.6609 174.533 25.9791C173.735 26.6887 172.877 27.699 174.952 25.8732C173.87 26.842 173.37 27.3551 172.822 27.8698C173.253 27.4938 173.474 27.3127 172.836 27.935C174.434 26.4839 173.335 27.4104 174.93 25.9911C174.904 26.1398 175.368 25.7623 176.799 24.5652L175.701 25.4289C175.742 25.3773 175.809 25.309 175.886 25.2348C175.48 25.5743 175.359 25.6637 175.25 25.7109C175.535 25.4577 176.768 24.2668 177.228 23.8972C176.566 24.387 177.221 23.7837 177.948 23.126C178.717 22.4328 179.569 21.6877 179.019 22.1012C179.187 21.9217 180.317 20.9442 180.464 20.8792C179.153 22.0971 181.553 20.0831 181.377 20.324C181.865 19.8722 180.263 21.1825 180.924 20.5721C181.732 19.8784 182.364 19.4171 182.836 19.055L182.508 19.3557L183.79 18.3235C183.965 18.1127 182.524 19.2941 183.664 18.2948C183.982 18.0534 185.13 17.0597 185.118 17.118C184.605 17.6306 185.062 17.3584 184.082 18.2008C184.897 17.5051 187.507 15.3115 186.393 16.1264L187.384 15.3182C186.735 15.7936 184.964 17.175 186.932 15.5298L186.926 15.5588L188.262 14.3746L188.894 13.9192C188.861 13.9154 189.065 13.7204 189.577 13.3031C189.729 13.2155 190.218 12.829 190.203 12.8896C191.684 11.671 191.534 11.7331 191.71 11.5539C192.535 10.8697 192.86 10.6295 192.506 10.9896C192.91 10.6621 193.466 10.2132 193.989 9.79023L194.074 9.7219L194.115 9.688C194.118 9.68594 194.123 9.68106 194.125 9.68132L194.125 9.69519L194.123 9.72294C194.12 9.79716 194.117 9.87012 194.114 9.94151C194.106 10.0846 194.099 10.2217 194.092 10.3498C194.076 10.6054 194.058 10.8222 194.038 10.9729C194.031 11.3751 194.028 11.5559 194.027 11.615C194.028 11.6872 194.036 11.6117 194.045 11.5107C194.062 11.3089 194.088 11.0048 194.09 11.5788C193.963 12.4207 193.849 14.0343 193.688 15.8334C193.646 16.2831 193.604 16.7443 193.561 17.2082C193.54 17.4468 193.507 17.6461 193.505 17.9648C193.521 18.2563 193.585 18.5419 193.697 18.7997C193.927 19.3126 194.296 19.7171 194.712 20.0032C195.125 20.2958 195.593 20.4739 196.062 20.5376C195.813 20.4652 195.764 20.4228 195.82 20.429C195.85 20.4329 195.908 20.4403 195.988 20.4506C196.066 20.4647 196.168 20.4765 196.285 20.4791C196.516 20.4901 196.79 20.466 197.047 20.3949C197.261 20.3425 197.447 20.2454 197.579 20.1545C197.595 20.156 197.685 20.119 197.81 20.0484C198.019 19.9359 198.302 19.7086 198.481 19.4901C198.664 19.2759 198.77 19.0982 198.75 19.1595C198.74 19.1898 198.698 19.2805 198.589 19.4405C198.522 19.5337 198.432 19.6578 198.298 19.7952C198.667 19.4243 198.922 18.9602 199.066 18.4831C199.124 18.3292 199.148 18.2593 199.156 18.2545C199.164 18.2493 199.159 18.3097 199.133 18.4106C199.092 18.6135 198.965 18.9797 198.774 19.2995C198.59 19.6238 198.331 19.8804 198.243 19.9785C198.143 20.0661 198.262 20.0484 198.636 19.6526C199.001 19.1906 199.191 18.6908 199.282 18.2116C199.307 18.0916 199.321 17.9717 199.333 17.8525C199.348 17.7298 199.35 17.6383 199.358 17.5302C199.372 17.3222 199.385 17.1147 199.399 16.9046C199.45 16.0632 199.507 15.181 199.619 14.0502C199.666 14.8181 199.712 12.3017 199.78 12.8745C199.786 13.3485 199.73 13.9775 199.685 14.6212L199.737 14.2241C199.907 12.1135 199.878 11.8048 199.844 11.7488C199.805 11.6925 199.742 11.8865 199.763 10.7783C199.855 8.20434 199.912 8.75083 199.969 8.60188C200.003 8.20174 200.01 6.90221 199.986 6.22394Z" fill="#0A293E"/>
</svg>
