<svg width="16" height="13" viewBox="0 0 16 13" fill="none" xmlns="http://www.w3.org/2000/svg">
<path d="M3.85 5.49999L15 5.49999C15.2833 5.49999 15.5208 5.59582 15.7125 5.78749C15.9042 5.97915 16 6.21665 16 6.49999C16 6.78332 15.9042 7.02082 15.7125 7.21249C15.5208 7.40415 15.2833 7.49999 15 7.49999L3.85 7.49999L6.7 10.35C6.9 10.55 6.99583 10.7833 6.9875 11.05C6.97917 11.3167 6.88333 11.55 6.7 11.75C6.5 11.95 6.2625 12.0542 5.9875 12.0625C5.7125 12.0708 5.475 11.975 5.275 11.775L0.7 7.19999C0.599999 7.09999 0.529167 6.99165 0.4875 6.87499C0.445833 6.75832 0.425 6.63332 0.425 6.49999C0.425 6.36665 0.445833 6.24165 0.4875 6.12499C0.529167 6.00832 0.599999 5.89999 0.7 5.79999L5.275 1.22499C5.475 1.02499 5.7125 0.929155 5.9875 0.937489C6.2625 0.945822 6.5 1.04999 6.7 1.24999C6.88333 1.44999 6.97917 1.68332 6.9875 1.94999C6.99583 2.21665 6.9 2.44999 6.7 2.64999L3.85 5.49999Z" fill="#0D344E"/>
</svg>
