<svg width="100" height="100" viewBox="0 0 100 100" fill="none" xmlns="http://www.w3.org/2000/svg">
<g opacity="0.2">
<path d="M64.5833 54.1667C79.541 54.1667 91.6667 50.4357 91.6667 45.8333C91.6667 41.231 79.541 37.5 64.5833 37.5C49.6256 37.5 37.5 41.231 37.5 45.8333C37.5 50.4357 49.6256 54.1667 64.5833 54.1667Z" stroke="#0A293E" stroke-width="6" stroke-linejoin="round"/>
<path d="M91.6667 64.5833C91.6667 69.1858 79.5413 72.9167 64.5833 72.9167C49.6254 72.9167 37.5 69.1858 37.5 64.5833" stroke="#0A293E" stroke-width="6" stroke-linejoin="round"/>
<path d="M91.6667 45.8333V82.5C91.6667 87.5625 79.5413 91.6667 64.5833 91.6667C49.6254 91.6667 37.5 87.5625 37.5 82.5V45.8333" stroke="#0A293E" stroke-width="6" stroke-linejoin="round"/>
<path d="M35.4166 25C50.3743 25 62.4999 21.269 62.4999 16.6667C62.4999 12.0643 50.3743 8.33333 35.4166 8.33333C20.4589 8.33333 8.33325 12.0643 8.33325 16.6667C8.33325 21.269 20.4589 25 35.4166 25Z" stroke="#0A293E" stroke-width="6" stroke-linejoin="round"/>
<path d="M29.1666 45.8333C20.8333 45.8333 9.87454 42.3937 8.33325 37.5M29.1666 66.6667C20.8333 66.6667 9.87454 63.2271 8.33325 58.3333" stroke="#0A293E" stroke-width="6" stroke-linejoin="round"/>
<path d="M29.1666 87.5C20.8333 87.5 9.87454 84.0604 8.33325 79.1667V16.6667" stroke="#0A293E" stroke-width="6" stroke-linejoin="round"/>
<path d="M62.5 29.1667V16.6667" stroke="#0A293E" stroke-width="6" stroke-linejoin="round"/>
</g>
</svg>
